<mxfile host="Electron" modified="2024-07-26T01:35:10.424Z" agent="Mozilla/5.0 (Windows NT 10.0; Win64; x64) AppleWebKit/537.36 (KHTML, like Gecko) draw.io/24.5.3 Chrome/124.0.6367.207 Electron/30.0.6 Safari/537.36" etag="n0jlRqtndXRN_geM2DIO" version="24.5.3" type="device">
  <diagram id="C5RBs43oDa-KdzZeNtuy" name="Page-1">
    <mxGraphModel dx="880" dy="1693" grid="1" gridSize="10" guides="1" tooltips="1" connect="1" arrows="1" fold="1" page="1" pageScale="1" pageWidth="827" pageHeight="1169" math="0" shadow="0">
      <root>
        <mxCell id="WIyWlLk6GJQsqaUBKTNV-0" />
        <mxCell id="WIyWlLk6GJQsqaUBKTNV-1" parent="WIyWlLk6GJQsqaUBKTNV-0" />
        <mxCell id="P_RixyA19fJqiTt09zhc-46" value="Articulo" style="swimlane;fontStyle=1;align=center;verticalAlign=top;childLayout=stackLayout;horizontal=1;startSize=26;horizontalStack=0;resizeParent=1;resizeParentMax=0;resizeLast=0;collapsible=1;marginBottom=0;whiteSpace=wrap;html=1;" parent="WIyWlLk6GJQsqaUBKTNV-1" vertex="1">
          <mxGeometry x="870" y="1100" width="180" height="184" as="geometry" />
        </mxCell>
        <mxCell id="P_RixyA19fJqiTt09zhc-47" value="&lt;div&gt;+ Nombre: String&lt;div&gt;+ Cod: Int&lt;/div&gt;&lt;div&gt;+ Categoria: String&lt;/div&gt;&lt;div&gt;+ Stock: Float&lt;/div&gt;&lt;div&gt;+ Disponible: Bolean&lt;/div&gt;&lt;div&gt;&lt;br&gt;&lt;div&gt;&lt;br&gt;&lt;/div&gt;&lt;/div&gt;&lt;/div&gt;" style="text;strokeColor=none;fillColor=none;align=left;verticalAlign=top;spacingLeft=4;spacingRight=4;overflow=hidden;rotatable=0;points=[[0,0.5],[1,0.5]];portConstraint=eastwest;whiteSpace=wrap;html=1;" parent="P_RixyA19fJqiTt09zhc-46" vertex="1">
          <mxGeometry y="26" width="180" height="124" as="geometry" />
        </mxCell>
        <mxCell id="P_RixyA19fJqiTt09zhc-48" value="" style="line;strokeWidth=1;fillColor=none;align=left;verticalAlign=middle;spacingTop=-1;spacingLeft=3;spacingRight=3;rotatable=0;labelPosition=right;points=[];portConstraint=eastwest;strokeColor=inherit;" parent="P_RixyA19fJqiTt09zhc-46" vertex="1">
          <mxGeometry y="150" width="180" height="8" as="geometry" />
        </mxCell>
        <mxCell id="P_RixyA19fJqiTt09zhc-49" value="+ method(type): type" style="text;strokeColor=none;fillColor=none;align=left;verticalAlign=top;spacingLeft=4;spacingRight=4;overflow=hidden;rotatable=0;points=[[0,0.5],[1,0.5]];portConstraint=eastwest;whiteSpace=wrap;html=1;" parent="P_RixyA19fJqiTt09zhc-46" vertex="1">
          <mxGeometry y="158" width="180" height="26" as="geometry" />
        </mxCell>
        <mxCell id="mj-gPDLdmwJ3bbromiy1-5" value="Item" style="swimlane;fontStyle=1;align=center;verticalAlign=top;childLayout=stackLayout;horizontal=1;startSize=26;horizontalStack=0;resizeParent=1;resizeParentMax=0;resizeLast=0;collapsible=1;marginBottom=0;whiteSpace=wrap;html=1;" parent="WIyWlLk6GJQsqaUBKTNV-1" vertex="1">
          <mxGeometry x="520" y="1130" width="180" height="134" as="geometry" />
        </mxCell>
        <mxCell id="mj-gPDLdmwJ3bbromiy1-6" value="&lt;div&gt;&lt;span style=&quot;background-color: initial;&quot;&gt;- Factura: &amp;lt;MOVIMIENTO&amp;gt;&lt;/span&gt;&lt;br&gt;&lt;/div&gt;&lt;div&gt;- Articulo: &amp;lt;ARTICULO&amp;gt;&lt;/div&gt;&lt;div&gt;- Cantidad: Int&lt;/div&gt;&lt;div&gt;- Descuento: Int&lt;br&gt;&lt;div&gt;&lt;br&gt;&lt;/div&gt;&lt;/div&gt;" style="text;strokeColor=none;fillColor=none;align=left;verticalAlign=top;spacingLeft=4;spacingRight=4;overflow=hidden;rotatable=0;points=[[0,0.5],[1,0.5]];portConstraint=eastwest;whiteSpace=wrap;html=1;" parent="mj-gPDLdmwJ3bbromiy1-5" vertex="1">
          <mxGeometry y="26" width="180" height="74" as="geometry" />
        </mxCell>
        <mxCell id="mj-gPDLdmwJ3bbromiy1-7" value="" style="line;strokeWidth=1;fillColor=none;align=left;verticalAlign=middle;spacingTop=-1;spacingLeft=3;spacingRight=3;rotatable=0;labelPosition=right;points=[];portConstraint=eastwest;strokeColor=inherit;" parent="mj-gPDLdmwJ3bbromiy1-5" vertex="1">
          <mxGeometry y="100" width="180" height="8" as="geometry" />
        </mxCell>
        <mxCell id="mj-gPDLdmwJ3bbromiy1-8" value="+ method(type): type" style="text;strokeColor=none;fillColor=none;align=left;verticalAlign=top;spacingLeft=4;spacingRight=4;overflow=hidden;rotatable=0;points=[[0,0.5],[1,0.5]];portConstraint=eastwest;whiteSpace=wrap;html=1;" parent="mj-gPDLdmwJ3bbromiy1-5" vertex="1">
          <mxGeometry y="108" width="180" height="26" as="geometry" />
        </mxCell>
        <mxCell id="IKVci3uDSbgotLvOMISM-1" value="" style="endArrow=diamondThin;endFill=0;endSize=24;html=1;rounded=0;entryX=1.029;entryY=0.603;entryDx=0;entryDy=0;entryPerimeter=0;exitX=0;exitY=0.597;exitDx=0;exitDy=0;exitPerimeter=0;" parent="WIyWlLk6GJQsqaUBKTNV-1" source="P_RixyA19fJqiTt09zhc-47" target="mj-gPDLdmwJ3bbromiy1-6" edge="1">
          <mxGeometry width="160" relative="1" as="geometry">
            <mxPoint x="780" y="1240" as="sourcePoint" />
            <mxPoint x="710" y="1200" as="targetPoint" />
          </mxGeometry>
        </mxCell>
        <mxCell id="IKVci3uDSbgotLvOMISM-2" value="1" style="edgeLabel;html=1;align=center;verticalAlign=middle;resizable=0;points=[];" parent="IKVci3uDSbgotLvOMISM-1" vertex="1" connectable="0">
          <mxGeometry x="0.442" y="2" relative="1" as="geometry">
            <mxPoint as="offset" />
          </mxGeometry>
        </mxCell>
        <mxCell id="IKVci3uDSbgotLvOMISM-3" value="1 - N" style="edgeLabel;html=1;align=center;verticalAlign=middle;resizable=0;points=[];" parent="IKVci3uDSbgotLvOMISM-1" vertex="1" connectable="0">
          <mxGeometry x="-0.538" y="1" relative="1" as="geometry">
            <mxPoint as="offset" />
          </mxGeometry>
        </mxCell>
        <mxCell id="IKVci3uDSbgotLvOMISM-4" value="&lt;h1 style=&quot;margin-top: 0px;&quot;&gt;&lt;font color=&quot;#ffffff&quot;&gt;Composicion&lt;/font&gt;&lt;/h1&gt;&lt;div&gt;&lt;span id=&quot;docs-internal-guid-e755c625-7fff-7a8e-f93a-b633c579a4e6&quot;&gt;&lt;p style=&quot;line-height:1.38;margin-top:0pt;margin-bottom:0pt;&quot; dir=&quot;ltr&quot;&gt;&lt;span style=&quot;font-family: Arial, sans-serif; background-color: transparent; font-variant-numeric: normal; font-variant-east-asian: normal; font-variant-alternates: normal; font-variant-position: normal; vertical-align: baseline; white-space-collapse: preserve;&quot;&gt;&lt;font style=&quot;font-size: 12px;&quot; color=&quot;#ffffff&quot;&gt;Dependienia existencial el objeto dependiente desaparece al ser destruido el objeto que lo contiene&amp;nbsp;&lt;/font&gt;&lt;/span&gt;&lt;/p&gt;&lt;p style=&quot;line-height:1.38;margin-top:0pt;margin-bottom:0pt;&quot; dir=&quot;ltr&quot;&gt;&lt;span style=&quot;font-family: Arial, sans-serif; background-color: transparent; font-variant-numeric: normal; font-variant-east-asian: normal; font-variant-alternates: normal; font-variant-position: normal; vertical-align: baseline; white-space-collapse: preserve;&quot;&gt;&lt;font style=&quot;font-size: 12px;&quot; color=&quot;#ffffff&quot;&gt;El objeto se va a instanciar cuando ya exista un movimiento&lt;/font&gt;&lt;/span&gt;&lt;/p&gt;&lt;div&gt;&lt;span style=&quot;font-size: 11pt; font-family: Arial, sans-serif; color: rgb(0, 0, 0); background-color: transparent; font-variant-numeric: normal; font-variant-east-asian: normal; font-variant-alternates: normal; font-variant-position: normal; vertical-align: baseline; white-space-collapse: preserve;&quot;&gt;&lt;br&gt;&lt;/span&gt;&lt;/div&gt;&lt;/span&gt;&lt;/div&gt;" style="text;html=1;whiteSpace=wrap;overflow=hidden;rounded=0;" parent="WIyWlLk6GJQsqaUBKTNV-1" vertex="1">
          <mxGeometry x="40" y="1120" width="180" height="210" as="geometry" />
        </mxCell>
        <mxCell id="Q_VclnhUHi-Qfi3st-K2-0" value="Client" style="swimlane;fontStyle=1;align=center;verticalAlign=top;childLayout=stackLayout;horizontal=1;startSize=26;horizontalStack=0;resizeParent=1;resizeParentMax=0;resizeLast=0;collapsible=1;marginBottom=0;whiteSpace=wrap;html=1;" parent="WIyWlLk6GJQsqaUBKTNV-1" vertex="1">
          <mxGeometry x="10" y="-650" width="230" height="210" as="geometry" />
        </mxCell>
        <mxCell id="Q_VclnhUHi-Qfi3st-K2-1" value="- Name: String&lt;div&gt;- Surname: String&lt;/div&gt;&lt;div&gt;- DNI: String&lt;/div&gt;&lt;div&gt;- Address: String&lt;br&gt;&lt;/div&gt;&lt;div&gt;- City: String&lt;/div&gt;&lt;div&gt;&lt;span style=&quot;background-color: initial;&quot;&gt;- Province: String&lt;/span&gt;&lt;/div&gt;&lt;div&gt;- PostalCode: String&lt;br&gt;&lt;/div&gt;&lt;div&gt;- CustomNumer: Int&lt;/div&gt;" style="text;strokeColor=none;fillColor=none;align=left;verticalAlign=top;spacingLeft=4;spacingRight=4;overflow=hidden;rotatable=0;points=[[0,0.5],[1,0.5]];portConstraint=eastwest;whiteSpace=wrap;html=1;" parent="Q_VclnhUHi-Qfi3st-K2-0" vertex="1">
          <mxGeometry y="26" width="230" height="144" as="geometry" />
        </mxCell>
        <mxCell id="Q_VclnhUHi-Qfi3st-K2-2" value="" style="line;strokeWidth=1;fillColor=none;align=left;verticalAlign=middle;spacingTop=-1;spacingLeft=3;spacingRight=3;rotatable=0;labelPosition=right;points=[];portConstraint=eastwest;strokeColor=inherit;" parent="Q_VclnhUHi-Qfi3st-K2-0" vertex="1">
          <mxGeometry y="170" width="230" height="8" as="geometry" />
        </mxCell>
        <mxCell id="Q_VclnhUHi-Qfi3st-K2-3" value="&lt;div&gt;+ GetClientData(): String&lt;br&gt;&lt;/div&gt;" style="text;strokeColor=none;fillColor=none;align=left;verticalAlign=top;spacingLeft=4;spacingRight=4;overflow=hidden;rotatable=0;points=[[0,0.5],[1,0.5]];portConstraint=eastwest;whiteSpace=wrap;html=1;" parent="Q_VclnhUHi-Qfi3st-K2-0" vertex="1">
          <mxGeometry y="178" width="230" height="32" as="geometry" />
        </mxCell>
        <mxCell id="Q_VclnhUHi-Qfi3st-K2-4" value="Transaction" style="swimlane;fontStyle=1;align=center;verticalAlign=top;childLayout=stackLayout;horizontal=1;startSize=26;horizontalStack=0;resizeParent=1;resizeParentMax=0;resizeLast=0;collapsible=1;marginBottom=0;whiteSpace=wrap;html=1;" parent="WIyWlLk6GJQsqaUBKTNV-1" vertex="1">
          <mxGeometry x="350" y="-679" width="210" height="190" as="geometry" />
        </mxCell>
        <mxCell id="Q_VclnhUHi-Qfi3st-K2-5" value="- Amount: Decimal&lt;div&gt;- Type: String&lt;/div&gt;&lt;div&gt;- Currency: String&lt;/div&gt;&lt;div&gt;&lt;span style=&quot;background-color: initial;&quot;&gt;-&amp;nbsp;&lt;/span&gt;&lt;span style=&quot;background-color: initial;&quot;&gt;Date&lt;/span&gt;&lt;span style=&quot;background-color: initial;&quot;&gt;: DateTime&lt;/span&gt;&lt;/div&gt;&lt;div&gt;&lt;br&gt;&lt;/div&gt;" style="text;strokeColor=none;fillColor=none;align=left;verticalAlign=top;spacingLeft=4;spacingRight=4;overflow=hidden;rotatable=0;points=[[0,0.5],[1,0.5]];portConstraint=eastwest;whiteSpace=wrap;html=1;" parent="Q_VclnhUHi-Qfi3st-K2-4" vertex="1">
          <mxGeometry y="26" width="210" height="84" as="geometry" />
        </mxCell>
        <mxCell id="Q_VclnhUHi-Qfi3st-K2-6" value="" style="line;strokeWidth=1;fillColor=none;align=left;verticalAlign=middle;spacingTop=-1;spacingLeft=3;spacingRight=3;rotatable=0;labelPosition=right;points=[];portConstraint=eastwest;strokeColor=inherit;" parent="Q_VclnhUHi-Qfi3st-K2-4" vertex="1">
          <mxGeometry y="110" width="210" height="8" as="geometry" />
        </mxCell>
        <mxCell id="Q_VclnhUHi-Qfi3st-K2-7" value="+&amp;nbsp;GetTransactionData(): String" style="text;strokeColor=none;fillColor=none;align=left;verticalAlign=top;spacingLeft=4;spacingRight=4;overflow=hidden;rotatable=0;points=[[0,0.5],[1,0.5]];portConstraint=eastwest;whiteSpace=wrap;html=1;" parent="Q_VclnhUHi-Qfi3st-K2-4" vertex="1">
          <mxGeometry y="118" width="210" height="72" as="geometry" />
        </mxCell>
        <mxCell id="Q_VclnhUHi-Qfi3st-K2-8" value="Branch" style="swimlane;fontStyle=1;align=center;verticalAlign=top;childLayout=stackLayout;horizontal=1;startSize=26;horizontalStack=0;resizeParent=1;resizeParentMax=0;resizeLast=0;collapsible=1;marginBottom=0;whiteSpace=wrap;html=1;" parent="WIyWlLk6GJQsqaUBKTNV-1" vertex="1">
          <mxGeometry x="400" y="-310" width="200" height="210" as="geometry" />
        </mxCell>
        <mxCell id="Q_VclnhUHi-Qfi3st-K2-9" value="&lt;div&gt;- Number: Int&lt;br&gt;&lt;/div&gt;&lt;div&gt;- Address: String&lt;br&gt;&lt;/div&gt;&lt;div&gt;&lt;span style=&quot;background-color: initial;&quot;&gt;-&amp;nbsp;&lt;/span&gt;&lt;span style=&quot;background-color: initial;&quot;&gt;City&lt;/span&gt;&lt;span style=&quot;background-color: initial;&quot;&gt;: String&lt;/span&gt;&lt;/div&gt;&lt;div&gt;&lt;span style=&quot;background-color: initial;&quot;&gt;-&amp;nbsp;&lt;/span&gt;&lt;span style=&quot;background-color: initial;&quot;&gt;Province&lt;/span&gt;&lt;span style=&quot;background-color: initial;&quot;&gt;: String&lt;/span&gt;&lt;/div&gt;&lt;div&gt;- Postal Code: String&lt;br&gt;&lt;/div&gt;&lt;div&gt;&lt;br&gt;&lt;/div&gt;" style="text;strokeColor=none;fillColor=none;align=left;verticalAlign=top;spacingLeft=4;spacingRight=4;overflow=hidden;rotatable=0;points=[[0,0.5],[1,0.5]];portConstraint=eastwest;whiteSpace=wrap;html=1;" parent="Q_VclnhUHi-Qfi3st-K2-8" vertex="1">
          <mxGeometry y="26" width="200" height="94" as="geometry" />
        </mxCell>
        <mxCell id="Q_VclnhUHi-Qfi3st-K2-10" value="" style="line;strokeWidth=1;fillColor=none;align=left;verticalAlign=middle;spacingTop=-1;spacingLeft=3;spacingRight=3;rotatable=0;labelPosition=right;points=[];portConstraint=eastwest;strokeColor=inherit;" parent="Q_VclnhUHi-Qfi3st-K2-8" vertex="1">
          <mxGeometry y="120" width="200" height="8" as="geometry" />
        </mxCell>
        <mxCell id="Q_VclnhUHi-Qfi3st-K2-11" value="&lt;div&gt;+ GetBranchData(): String&lt;/div&gt;" style="text;strokeColor=none;fillColor=none;align=left;verticalAlign=top;spacingLeft=4;spacingRight=4;overflow=hidden;rotatable=0;points=[[0,0.5],[1,0.5]];portConstraint=eastwest;whiteSpace=wrap;html=1;" parent="Q_VclnhUHi-Qfi3st-K2-8" vertex="1">
          <mxGeometry y="128" width="200" height="82" as="geometry" />
        </mxCell>
        <mxCell id="Q_VclnhUHi-Qfi3st-K2-12" value="Ticket" style="swimlane;fontStyle=1;align=center;verticalAlign=top;childLayout=stackLayout;horizontal=1;startSize=26;horizontalStack=0;resizeParent=1;resizeParentMax=0;resizeLast=0;collapsible=1;marginBottom=0;whiteSpace=wrap;html=1;" parent="WIyWlLk6GJQsqaUBKTNV-1" vertex="1">
          <mxGeometry x="20" y="-330" width="220" height="210" as="geometry" />
        </mxCell>
        <mxCell id="Q_VclnhUHi-Qfi3st-K2-13" value="- Client:&amp;nbsp;&amp;lt;CLIENT&amp;gt;&lt;div&gt;- Transaction:&amp;nbsp;&amp;lt;TRANSACTION&amp;gt;&lt;/div&gt;&lt;div&gt;- Branch:&amp;nbsp;&amp;lt;BRANCH&amp;gt;&lt;br&gt;&lt;/div&gt;&lt;div&gt;&lt;br&gt;&lt;/div&gt;" style="text;strokeColor=none;fillColor=none;align=left;verticalAlign=top;spacingLeft=4;spacingRight=4;overflow=hidden;rotatable=0;points=[[0,0.5],[1,0.5]];portConstraint=eastwest;whiteSpace=wrap;html=1;" parent="Q_VclnhUHi-Qfi3st-K2-12" vertex="1">
          <mxGeometry y="26" width="220" height="94" as="geometry" />
        </mxCell>
        <mxCell id="Q_VclnhUHi-Qfi3st-K2-14" value="" style="line;strokeWidth=1;fillColor=none;align=left;verticalAlign=middle;spacingTop=-1;spacingLeft=3;spacingRight=3;rotatable=0;labelPosition=right;points=[];portConstraint=eastwest;strokeColor=inherit;" parent="Q_VclnhUHi-Qfi3st-K2-12" vertex="1">
          <mxGeometry y="120" width="220" height="8" as="geometry" />
        </mxCell>
        <mxCell id="Q_VclnhUHi-Qfi3st-K2-15" value="&lt;div&gt;+ GenerateTicket() : void&lt;/div&gt;" style="text;strokeColor=none;fillColor=none;align=left;verticalAlign=top;spacingLeft=4;spacingRight=4;overflow=hidden;rotatable=0;points=[[0,0.5],[1,0.5]];portConstraint=eastwest;whiteSpace=wrap;html=1;" parent="Q_VclnhUHi-Qfi3st-K2-12" vertex="1">
          <mxGeometry y="128" width="220" height="82" as="geometry" />
        </mxCell>
        <mxCell id="Q_VclnhUHi-Qfi3st-K2-16" value="" style="endArrow=diamondThin;endFill=1;endSize=24;html=1;rounded=0;entryX=0.665;entryY=1.044;entryDx=0;entryDy=0;entryPerimeter=0;exitX=0.216;exitY=0.013;exitDx=0;exitDy=0;exitPerimeter=0;" parent="WIyWlLk6GJQsqaUBKTNV-1" edge="1">
          <mxGeometry width="160" relative="1" as="geometry">
            <mxPoint x="203" y="-329" as="sourcePoint" />
            <mxPoint x="40" y="-440" as="targetPoint" />
            <Array as="points">
              <mxPoint x="110" y="-390" />
            </Array>
          </mxGeometry>
        </mxCell>
        <mxCell id="Q_VclnhUHi-Qfi3st-K2-17" value="1" style="edgeLabel;html=1;align=center;verticalAlign=middle;resizable=0;points=[];" parent="Q_VclnhUHi-Qfi3st-K2-16" vertex="1" connectable="0">
          <mxGeometry x="0.4756" y="2" relative="1" as="geometry">
            <mxPoint as="offset" />
          </mxGeometry>
        </mxCell>
        <mxCell id="Q_VclnhUHi-Qfi3st-K2-18" value="1 - N" style="edgeLabel;html=1;align=center;verticalAlign=middle;resizable=0;points=[];" parent="Q_VclnhUHi-Qfi3st-K2-16" vertex="1" connectable="0">
          <mxGeometry x="-0.6537" y="2" relative="1" as="geometry">
            <mxPoint as="offset" />
          </mxGeometry>
        </mxCell>
        <mxCell id="Q_VclnhUHi-Qfi3st-K2-19" value="" style="endArrow=diamondThin;endFill=1;endSize=24;html=1;rounded=0;entryX=-0.014;entryY=0.929;entryDx=0;entryDy=0;entryPerimeter=0;exitX=1;exitY=0.095;exitDx=0;exitDy=0;exitPerimeter=0;" parent="WIyWlLk6GJQsqaUBKTNV-1" source="Q_VclnhUHi-Qfi3st-K2-12" target="Q_VclnhUHi-Qfi3st-K2-5" edge="1">
          <mxGeometry width="160" relative="1" as="geometry">
            <mxPoint x="350" y="-359" as="sourcePoint" />
            <mxPoint x="187" y="-470" as="targetPoint" />
            <Array as="points" />
          </mxGeometry>
        </mxCell>
        <mxCell id="Q_VclnhUHi-Qfi3st-K2-20" value="1" style="edgeLabel;html=1;align=center;verticalAlign=middle;resizable=0;points=[];" parent="Q_VclnhUHi-Qfi3st-K2-19" vertex="1" connectable="0">
          <mxGeometry x="0.4756" y="2" relative="1" as="geometry">
            <mxPoint as="offset" />
          </mxGeometry>
        </mxCell>
        <mxCell id="Q_VclnhUHi-Qfi3st-K2-21" value="1 - N" style="edgeLabel;html=1;align=center;verticalAlign=middle;resizable=0;points=[];" parent="Q_VclnhUHi-Qfi3st-K2-19" vertex="1" connectable="0">
          <mxGeometry x="-0.6537" y="2" relative="1" as="geometry">
            <mxPoint as="offset" />
          </mxGeometry>
        </mxCell>
        <mxCell id="Q_VclnhUHi-Qfi3st-K2-22" value="" style="endArrow=diamondThin;endFill=1;endSize=24;html=1;rounded=0;entryX=-0.022;entryY=-0.061;entryDx=0;entryDy=0;entryPerimeter=0;exitX=0.991;exitY=0.34;exitDx=0;exitDy=0;exitPerimeter=0;" parent="WIyWlLk6GJQsqaUBKTNV-1" source="Q_VclnhUHi-Qfi3st-K2-13" target="Q_VclnhUHi-Qfi3st-K2-11" edge="1">
          <mxGeometry width="160" relative="1" as="geometry">
            <mxPoint x="250" y="-300" as="sourcePoint" />
            <mxPoint x="357" y="-565" as="targetPoint" />
            <Array as="points" />
          </mxGeometry>
        </mxCell>
        <mxCell id="Q_VclnhUHi-Qfi3st-K2-23" value="1" style="edgeLabel;html=1;align=center;verticalAlign=middle;resizable=0;points=[];" parent="Q_VclnhUHi-Qfi3st-K2-22" vertex="1" connectable="0">
          <mxGeometry x="0.4756" y="2" relative="1" as="geometry">
            <mxPoint as="offset" />
          </mxGeometry>
        </mxCell>
        <mxCell id="Q_VclnhUHi-Qfi3st-K2-24" value="1 - N" style="edgeLabel;html=1;align=center;verticalAlign=middle;resizable=0;points=[];" parent="Q_VclnhUHi-Qfi3st-K2-22" vertex="1" connectable="0">
          <mxGeometry x="-0.6537" y="2" relative="1" as="geometry">
            <mxPoint as="offset" />
          </mxGeometry>
        </mxCell>
        <mxCell id="Q_VclnhUHi-Qfi3st-K2-25" value="" style="endArrow=open;endFill=1;endSize=12;html=1;rounded=0;" parent="WIyWlLk6GJQsqaUBKTNV-1" source="Q_VclnhUHi-Qfi3st-K2-7" target="Q_VclnhUHi-Qfi3st-K2-8" edge="1">
          <mxGeometry width="160" relative="1" as="geometry">
            <mxPoint x="490" y="-149" as="sourcePoint" />
            <mxPoint x="695" y="-150" as="targetPoint" />
          </mxGeometry>
        </mxCell>
        <mxCell id="Q_VclnhUHi-Qfi3st-K2-26" value="1" style="edgeLabel;html=1;align=center;verticalAlign=middle;resizable=0;points=[];" parent="WIyWlLk6GJQsqaUBKTNV-1" vertex="1" connectable="0">
          <mxGeometry x="470.0020150894819" y="-339.9993248597864" as="geometry" />
        </mxCell>
        <mxCell id="Q_VclnhUHi-Qfi3st-K2-27" value="1 - N" style="edgeLabel;html=1;align=center;verticalAlign=middle;resizable=0;points=[];" parent="WIyWlLk6GJQsqaUBKTNV-1" vertex="1" connectable="0">
          <mxGeometry x="275.9033624503538" y="-249.30586332449298" as="geometry">
            <mxPoint x="191" y="-211" as="offset" />
          </mxGeometry>
        </mxCell>
      </root>
    </mxGraphModel>
  </diagram>
</mxfile>
